<?xml version="1.0" standalone="no"?>
<!DOCTYPE svg PUBLIC "-//W3C//DTD SVG 20010904//EN"
 "http://www.w3.org/TR/2001/REC-SVG-20010904/DTD/svg10.dtd">
<svg version="1.0" xmlns="http://www.w3.org/2000/svg"
 width="657.000000pt" height="392.000000pt" viewBox="0 0 657.000000 392.000000"
 preserveAspectRatio="xMidYMid meet">

<g transform="translate(0.000000,392.000000) scale(0.100000,-0.100000)"
fill="#000000" stroke="none">
<path d="M3235 3491 c-27 -15 -77 -44 -110 -63 -33 -19 -166 -96 -295 -170
-129 -74 -280 -161 -335 -192 -55 -32 -120 -69 -143 -83 l-44 -25 34 -37 33
-36 -36 33 -37 34 -38 -20 c-22 -11 -77 -59 -124 -106 -47 -47 -89 -86 -95
-86 -5 0 26 35 70 77 54 52 69 70 45 56 -19 -12 -82 -48 -140 -81 l-105 -61
-1 -373 c-1 -205 0 -362 3 -348 2 14 7 32 10 40 3 8 6 18 5 22 -1 4 7 10 18
13 11 4 20 11 20 16 0 6 4 8 9 5 16 -11 21 39 21 245 l0 207 -40 36 c-45 41
-46 42 -24 50 11 4 15 2 11 -8 -3 -7 8 -26 24 -42 l29 -28 0 53 c0 58 -13 46
150 140 162 94 484 280 568 329 l94 54 -33 34 c-18 19 -28 34 -21 34 6 0 16
-9 22 -20 25 -47 39 -43 206 52 87 50 185 105 216 123 l58 31 -30 29 c-17 16
-30 33 -30 39 0 5 15 -5 33 -23 31 -29 36 -31 60 -20 15 7 29 21 33 31 3 12
12 17 20 14 9 -3 12 -1 9 4 -8 13 1 13 26 0 10 -6 19 -8 19 -6 0 7 -96 56
-107 56 -4 0 -30 -13 -58 -29z m-1220 -791 c-16 -16 -34 -30 -39 -30 -12 1 49
60 61 60 4 0 -6 -13 -22 -30z"/>
<path d="M3419 3393 l-34 -38 37 34 c23 21 42 31 53 27 9 -3 13 -2 10 4 -11
18 -31 10 -66 -27z"/>
<path d="M3740 2906 c0 -2 8 -10 18 -17 15 -13 16 -12 3 4 -13 16 -21 21 -21
13z"/>
<path d="M4220 2848 c0 -17 2 -18 15 -8 8 7 15 14 15 15 0 2 -7 5 -15 9 -10 4
-15 -1 -15 -16z"/>
<path d="M3820 2825 c13 -14 26 -25 28 -25 3 0 -5 11 -18 25 -13 14 -26 25
-28 25 -3 0 5 -11 18 -25z"/>
<path d="M4159 2732 c-89 -90 -99 -102 -43 -54 39 34 73 62 77 62 8 0 1 -39
-24 -128 -23 -89 -29 -78 120 -227 l101 -100 100 100 100 100 0 92 0 91 -52
30 c-54 30 -164 92 -229 129 l-36 21 -114 -116z"/>
<path d="M3950 2697 l85 -87 -170 -173 -170 -172 171 169 172 169 50 -52 c57
-58 56 -52 8 -172 -14 -36 -26 -69 -26 -73 0 -4 -12 -32 -27 -62 -14 -30 -24
-55 -22 -57 2 -1 51 -14 109 -29 l105 -27 72 71 c41 41 69 76 65 82 -4 6 -120
121 -257 256 -138 135 -212 206 -165 157z"/>
<path d="M4485 2369 l-88 -91 96 -96 97 -97 0 188 c0 103 -4 187 -8 187 -5 0
-48 -41 -97 -91z"/>
<path d="M3605 2340 c10 -11 20 -20 23 -20 3 0 -3 9 -13 20 -10 11 -20 20 -23
20 -3 0 3 -9 13 -20z"/>
<path d="M3680 2265 c13 -14 26 -25 28 -25 3 0 -5 11 -18 25 -13 14 -26 25
-28 25 -3 0 5 -11 18 -25z"/>
<path d="M4317 2201 c-37 -37 -67 -71 -67 -75 0 -3 8 -6 18 -6 9 0 82 -22 162
-50 80 -27 148 -50 152 -50 5 0 8 7 8 16 0 9 5 12 12 8 7 -4 2 6 -9 22 -21 28
-197 204 -205 204 -2 0 -34 -31 -71 -69z"/>
<path d="M3139 2186 c-2 -2 -60 -6 -127 -9 -70 -3 -129 -10 -135 -16 -13 -13
-31 -15 -23 -2 3 4 -5 7 -17 5 -12 -2 -74 -10 -137 -19 -159 -21 -230 -36
-230 -47 0 -6 10 -8 23 -5 88 22 375 54 606 67 170 10 494 0 649 -19 61 -7 90
0 54 14 -41 16 -648 45 -663 31z"/>
<path d="M3834 2141 c3 -5 45 -14 93 -21 222 -29 511 -103 725 -183 36 -14 69
-23 72 -20 3 4 6 1 6 -5 0 -7 5 -12 12 -12 24 0 -10 23 -64 42 -200 73 -410
138 -463 143 -11 1 -27 4 -35 8 -30 12 -293 57 -335 57 -9 0 -14 -4 -11 -9z"/>
<path d="M2428 2104 c-4 -3 -55 -18 -115 -33 -59 -16 -148 -41 -197 -56 -49
-15 -94 -28 -100 -29 -6 -1 -22 -10 -36 -20 -14 -10 -18 -16 -10 -14 135 45
296 92 378 111 57 13 103 28 103 33 1 11 -15 17 -23 8z"/>
<path d="M1845 1911 c-33 -16 -55 -29 -50 -29 14 0 132 56 120 57 -5 1 -37
-12 -70 -28z"/>
<path d="M4860 1846 c46 -25 87 -42 90 -38 3 4 3 6 1 5 -2 -2 -32 12 -65 31
-34 18 -72 37 -86 40 -14 4 13 -13 60 -38z"/>
<path d="M1685 1839 c-22 -11 -47 -27 -55 -35 -11 -12 87 36 109 53 13 10 -20
-1 -54 -18z"/>
<path d="M4979 1783 c13 -10 43 -29 65 -41 36 -21 38 -21 16 -3 -14 11 -43 30
-65 41 -30 15 -34 16 -16 3z"/>
<path d="M3045 1399 c-49 -4 -125 -10 -168 -13 -56 -3 -84 -9 -98 -22 -13 -11
-19 -13 -19 -5 0 10 -14 11 -52 6 -99 -12 -168 -28 -168 -38 0 -5 -6 -4 -15 3
-8 6 -18 9 -23 6 -4 -3 -58 -16 -118 -30 -106 -24 -308 -82 -369 -106 -65 -26
-1 -19 87 9 134 43 338 90 507 116 80 12 147 21 149 20 1 -1 -81 -85 -183
-186 -102 -100 -185 -188 -185 -193 0 -6 47 36 104 94 56 58 112 113 122 122
19 17 23 15 98 -61 l77 -78 -73 -26 c-40 -15 -109 -36 -153 -48 -43 -11 -85
-24 -93 -28 -15 -8 -2 -17 208 -141 l135 -79 80 77 81 77 -167 170 -168 170
70 67 c81 77 81 77 313 87 l139 6 43 -45 43 -45 -32 -19 c-18 -11 -54 -34 -82
-52 -27 -18 -109 -61 -182 -96 l-132 -64 82 -82 82 -82 167 167 c92 92 170
165 172 162 3 -3 -70 -80 -162 -172 l-168 -168 108 -106 c59 -59 105 -109 102
-112 -3 -3 -8 -1 -12 4 -4 6 -53 54 -108 108 l-99 97 -78 -78 -78 -79 213
-126 c117 -70 217 -129 223 -131 5 -2 -7 -19 -29 -38 l-38 -34 49 -26 c43 -24
52 -26 74 -14 13 7 116 66 229 131 113 65 233 135 268 154 34 19 62 39 62 44
0 5 -13 21 -30 35 -16 15 -30 31 -30 36 0 6 18 -8 40 -29 40 -39 41 -40 68
-24 130 76 288 168 340 196 34 19 62 38 62 41 0 4 -21 29 -47 57 l-48 50 55
-52 55 -51 119 69 c65 37 125 77 133 88 7 11 20 18 28 15 8 -3 27 3 42 14 l27
19 67 -27 c37 -16 87 -40 112 -54 51 -30 54 -31 54 -11 0 8 -3 12 -7 10 -4 -3
-36 9 -71 26 -114 55 -171 79 -179 74 -5 -3 -10 -1 -12 3 -5 15 -183 77 -328
115 -207 55 -188 55 -240 2 l-44 -45 49 -53 50 -52 -53 50 -52 50 -258 -257
c-141 -142 -261 -261 -267 -265 -5 -4 30 34 79 84 81 84 88 93 75 110 -13 17
-13 17 4 4 17 -13 32 0 190 157 l172 172 -58 53 c-31 29 -57 57 -57 62 0 5 27
-17 60 -50 l60 -59 40 39 c22 21 40 42 40 45 0 9 -188 40 -204 34 -7 -3 -19 2
-26 10 -7 9 -16 13 -21 10 -10 -6 -318 24 -332 33 -4 2 -49 -36 -100 -86 l-92
-90 150 -152 c83 -84 132 -138 110 -121 -22 17 -134 125 -250 241 -115 116
-212 210 -215 210 -3 -1 -45 -5 -95 -10z m1140 -309 c10 -11 16 -20 13 -20 -3
0 -13 9 -23 20 -10 11 -16 20 -13 20 3 0 13 -9 23 -20z m-424 -277 c13 -16 12
-17 -3 -4 -10 7 -18 15 -18 17 0 8 8 3 21 -13z m-261 -126 c0 -2 -15 -16 -32
-33 l-33 -29 29 33 c28 30 36 37 36 29z m-239 -74 c13 -16 12 -17 -3 -4 -17
13 -22 21 -14 21 2 0 10 -8 17 -17z m159 -6 c0 -2 -12 -14 -27 -28 l-28 -24
24 28 c23 25 31 32 31 24z m-72 -73 c1 0 -8 -9 -20 -20 -18 -15 -20 -16 -9 -1
11 14 11 20 0 35 -13 16 -13 16 6 2 11 -8 21 -15 23 -16z m94 -37 l-32 -33 22
-22 c12 -12 18 -22 12 -22 -5 0 -25 16 -44 35 -29 30 -31 35 -14 35 10 0 33 9
49 20 42 28 44 25 7 -13z m-56 -38 c4 -6 -16 -33 -44 -62 -49 -49 -51 -50 -81
-37 -17 7 -34 17 -37 22 -7 11 44 53 67 54 9 1 27 9 40 18 27 19 45 20 55 5z"/>
<path d="M3205 1400 l-30 -7 28 -11 c16 -7 55 -12 87 -12 68 0 72 -12 15 -45
l-34 -20 32 -32 32 -32 78 76 c43 41 77 76 75 78 -8 6 -256 11 -283 5z"/>
<path d="M2571 1267 c2 -1 15 -11 29 -22 l25 -20 -19 23 c-11 12 -24 22 -29
22 -6 0 -8 -1 -6 -3z"/>
<path d="M1912 1160 c-23 -11 -43 -18 -45 -17 -1 1 -13 -6 -27 -16 -31 -21
-19 -22 21 -1 24 12 34 13 45 3 12 -9 13 -9 9 3 -4 10 6 20 32 30 21 9 31 16
23 16 -8 0 -34 -8 -58 -18z"/>
<path d="M1770 1095 c-14 -8 -20 -14 -15 -14 6 0 21 6 35 14 14 8 21 14 15 14
-5 0 -21 -6 -35 -14z"/>
<path d="M1655 1043 c-50 -34 -43 -37 15 -8 28 14 50 27 50 29 0 10 -35 -1
-65 -21z"/>
<path d="M4950 1018 c3 -3 32 -22 65 -43 42 -26 54 -31 40 -15 -17 18 -39 32
-100 58 -5 3 -8 3 -5 0z"/>
</g>
</svg>
