<svg width="16" height="16" viewBox="0.5 -3 16 16" xmlns="http://www.w3.org/2000/svg">
   <g id="svgGroup" stroke-linecap="round" fill-rule="evenodd" font-size="9pt" stroke="#050505" stroke-width="0mm" fill="#ffffff" style="stroke:#050505;stroke-width:0mm;fill:#ffffff"><path d="M 11.638 9.206 L 7.988 0.1 L 9.688 0.1 Q 9.928 0.1 10.092 0.195 A 0.585 0.585 0 0 1 10.138 0.225 Q 10.313 0.35 10.388 0.556 L 12.15 5.431 A 15.556 15.556 0 0 1 12.27 5.764 A 19.411 19.411 0 0 1 12.391 6.125 Q 12.513 6.5 12.619 6.913 Q 12.706 6.5 12.822 6.125 A 20.376 20.376 0 0 1 12.937 5.764 A 16.293 16.293 0 0 1 13.05 5.431 L 14.8 0.556 A 0.618 0.618 0 0 1 14.915 0.362 A 0.874 0.874 0 0 1 15.044 0.241 A 0.665 0.665 0 0 1 15.367 0.108 A 0.882 0.882 0 0 1 15.488 0.1 L 17.2 0.1 L 13.55 9.206 L 11.638 9.206 Z M 6.938 6.975 L 7.775 7.856 Q 7.225 8.575 6.397 8.941 Q 5.569 9.306 4.438 9.306 Q 3.4 9.306 2.578 8.953 A 4.068 4.068 0 0 1 1.35 8.148 A 3.879 3.879 0 0 1 1.184 7.978 A 4.245 4.245 0 0 1 0.367 6.663 A 4.91 4.91 0 0 1 0.306 6.503 A 5.267 5.267 0 0 1 0.015 5.08 A 6.233 6.233 0 0 1 0 4.65 A 5.171 5.171 0 0 1 0.144 3.413 A 4.495 4.495 0 0 1 0.35 2.778 Q 0.7 1.925 1.328 1.306 A 4.379 4.379 0 0 1 2.716 0.391 A 5.038 5.038 0 0 1 2.831 0.344 A 4.982 4.982 0 0 1 4.183 0.027 A 6.055 6.055 0 0 1 4.763 0 A 5.166 5.166 0 0 1 5.439 0.043 A 4.434 4.434 0 0 1 5.728 0.091 A 4.871 4.871 0 0 1 6.374 0.265 A 4.31 4.31 0 0 1 6.575 0.341 Q 6.969 0.5 7.3 0.722 Q 7.631 0.944 7.888 1.213 L 7.175 2.169 A 0.902 0.902 0 0 1 7.024 2.319 A 1.002 1.002 0 0 1 7.013 2.328 Q 6.938 2.385 6.816 2.397 A 0.691 0.691 0 0 1 6.75 2.4 Q 6.638 2.4 6.538 2.35 A 2.055 2.055 0 0 1 6.434 2.295 A 2.681 2.681 0 0 1 6.325 2.228 A 32.871 32.871 0 0 0 6.207 2.153 A 42.573 42.573 0 0 0 6.078 2.072 A 1.603 1.603 0 0 0 5.931 1.991 Q 5.852 1.952 5.759 1.916 A 2.169 2.169 0 0 0 5.573 1.853 Q 5.459 1.82 5.328 1.794 A 2.329 2.329 0 0 0 5.096 1.76 Q 4.936 1.744 4.75 1.744 A 2.827 2.827 0 0 0 4.086 1.819 A 2.424 2.424 0 0 0 3.7 1.947 Q 3.225 2.15 2.884 2.528 A 2.572 2.572 0 0 0 2.465 3.169 A 3.125 3.125 0 0 0 2.353 3.444 Q 2.163 3.981 2.163 4.65 A 4.386 4.386 0 0 0 2.207 5.291 A 3.258 3.258 0 0 0 2.353 5.894 A 3.057 3.057 0 0 0 2.595 6.423 A 2.435 2.435 0 0 0 2.872 6.809 A 2.201 2.201 0 0 0 3.638 7.375 A 2.289 2.289 0 0 0 4.575 7.569 A 5.147 5.147 0 0 0 4.85 7.562 A 3.905 3.905 0 0 0 5.1 7.541 A 2.288 2.288 0 0 0 5.404 7.485 A 1.947 1.947 0 0 0 5.541 7.444 A 2.038 2.038 0 0 0 5.928 7.266 A 2.374 2.374 0 0 0 6.154 7.113 A 2.961 2.961 0 0 0 6.3 6.994 Q 6.375 6.931 6.463 6.891 A 0.426 0.426 0 0 1 6.644 6.85 A 0.421 0.421 0 0 1 6.782 6.874 A 0.481 0.481 0 0 1 6.794 6.878 A 0.359 0.359 0 0 1 6.876 6.923 A 0.487 0.487 0 0 1 6.938 6.975 Z"/></g>
</svg>