<svg width="16" height="16" viewBox="-4 -3 16 16" xmlns="http://www.w3.org/2000/svg"><g id="svgGroup" stroke-linecap="round" fill-rule="evenodd" font-size="9pt" stroke="#ffffff" stroke-width="1" fill="#ffffff" style="stroke:#ffffff;stroke-width:1;fill:#ffffff"><path d="M 0.944 11.52 L 1.472 10.272 Q 1.856 10.576 2.368 10.776 A 2.705 2.705 0 0 0 2.878 10.916 Q 3.214 10.976 3.616 10.976 A 3.472 3.472 0 0 0 4.339 10.905 Q 4.975 10.77 5.4 10.376 A 1.816 1.816 0 0 0 5.865 9.657 Q 5.974 9.363 6.018 8.997 A 4.455 4.455 0 0 0 6.048 8.464 L 6.048 7.44 A 2.528 2.528 0 0 1 5.728 7.757 Q 5.475 7.969 5.128 8.168 A 2.545 2.545 0 0 1 4.299 8.462 A 3.454 3.454 0 0 1 3.696 8.512 Q 2.752 8.512 1.904 8.024 A 3.558 3.558 0 0 1 0.737 6.93 A 4.39 4.39 0 0 1 0.528 6.592 Q 0 5.648 0 4.32 Q 0 3.072 0.52 2.096 A 4.113 4.113 0 0 1 1.49 0.877 A 3.912 3.912 0 0 1 1.92 0.56 Q 2.8 0 3.856 0 A 3.579 3.579 0 0 1 4.627 0.08 A 2.994 2.994 0 0 1 5.136 0.24 Q 5.712 0.48 6.128 0.832 L 6.128 0.192 L 7.44 0.192 L 7.44 8.32 A 6.511 6.511 0 0 1 7.383 9.206 Q 7.275 9.993 6.96 10.56 Q 6.48 11.424 5.624 11.824 A 4.13 4.13 0 0 1 4.567 12.148 A 5.639 5.639 0 0 1 3.616 12.224 Q 2.88 12.224 2.184 12.048 A 4.357 4.357 0 0 1 1.336 11.741 A 3.763 3.763 0 0 1 0.944 11.52 Z M 6 6.272 L 6 1.92 Q 5.654 1.668 5.168 1.463 A 5.781 5.781 0 0 0 5.152 1.456 A 2.6 2.6 0 0 0 4.543 1.288 A 3.542 3.542 0 0 0 4 1.248 Q 3.344 1.248 2.768 1.6 Q 2.192 1.952 1.832 2.616 Q 1.472 3.28 1.472 4.24 A 3.891 3.891 0 0 0 1.549 5.03 A 2.93 2.93 0 0 0 1.832 5.824 A 2.972 2.972 0 0 0 2.298 6.476 A 2.528 2.528 0 0 0 2.768 6.864 Q 3.344 7.232 4.016 7.232 A 2.444 2.444 0 0 0 4.749 7.125 A 2.177 2.177 0 0 0 5.168 6.944 Q 5.68 6.656 6 6.272 Z" vector-effect="non-scaling-stroke"/></g></svg>